<svg width="20" height="21" viewBox="0 0 20 21" fill="none" xmlns="http://www.w3.org/2000/svg">
<path d="M12.0003 16.0656C12.2655 16.0656 12.5199 15.9602 12.7074 15.7727C12.8949 15.5851 13.0003 15.3308 13.0003 15.0656V13.0656C13.0003 12.8004 12.8949 12.546 12.7074 12.3585C12.5199 12.1709 12.2655 12.0656 12.0003 12.0656C11.7351 12.0656 11.4807 12.1709 11.2932 12.3585C11.1056 12.546 11.0003 12.8004 11.0003 13.0656V15.0656C11.0003 15.3308 11.1056 15.5851 11.2932 15.7727C11.4807 15.9602 11.7351 16.0656 12.0003 16.0656ZM8.00028 16.0656C8.2655 16.0656 8.51985 15.9602 8.70739 15.7727C8.89492 15.5851 9.00028 15.3308 9.00028 15.0656V13.0656C9.00028 12.8004 8.89492 12.546 8.70739 12.3585C8.51985 12.1709 8.2655 12.0656 8.00028 12.0656C7.73506 12.0656 7.48071 12.1709 7.29317 12.3585C7.10564 12.546 7.00028 12.8004 7.00028 13.0656V15.0656C7.00028 15.3308 7.10564 15.5851 7.29317 15.7727C7.48071 15.9602 7.73506 16.0656 8.00028 16.0656ZM17.0003 4.06558H15.6203L13.8903 0.615579C13.8374 0.488632 13.7589 0.373953 13.6598 0.278707C13.5606 0.183461 13.4428 0.109696 13.3138 0.062021C13.1848 0.0143462 13.0474 -0.00621351 12.9101 0.0016267C12.7728 0.0094669 12.6386 0.0455386 12.5159 0.107587C12.3932 0.169636 12.2846 0.256329 12.1969 0.362247C12.1092 0.468166 12.0443 0.591033 12.0062 0.723173C11.9681 0.855312 11.9577 0.993883 11.9756 1.13023C11.9935 1.26657 12.0394 1.39775 12.1103 1.51558L13.3803 4.06558H6.62028L7.89028 1.51558C7.98735 1.28249 7.99264 1.0213 7.9051 0.784466C7.81756 0.54763 7.64367 0.352676 7.41834 0.238745C7.19301 0.124813 6.93292 0.10034 6.6903 0.170238C6.44767 0.240136 6.24046 0.39923 6.11028 0.615579L4.38028 4.06558H3.00028C2.29347 4.07633 1.61316 4.33633 1.07933 4.79971C0.545503 5.2631 0.192455 5.9001 0.0824515 6.59839C-0.0275518 7.29667 0.112557 8.01137 0.478067 8.61643C0.843577 9.22149 1.41101 9.67805 2.08028 9.90558L2.82028 17.3656C2.8949 18.1081 3.24363 18.7962 3.79835 19.2955C4.35308 19.7948 5.07398 20.0693 5.82028 20.0656H14.2003C14.9466 20.0693 15.6675 19.7948 16.2222 19.2955C16.7769 18.7962 17.1257 18.1081 17.2003 17.3656L17.9403 9.90558C18.611 9.67737 19.1793 9.21915 19.5446 8.61206C19.9098 8.00498 20.0484 7.28821 19.9359 6.58872C19.8233 5.88923 19.4667 5.25217 18.9294 4.79035C18.3921 4.32854 17.7087 4.07179 17.0003 4.06558ZM15.1903 17.1656C15.1654 17.4131 15.0492 17.6425 14.8643 17.8089C14.6793 17.9753 14.439 18.0668 14.1903 18.0656H5.81028C5.56151 18.0668 5.32121 17.9753 5.1363 17.8089C4.9514 17.6425 4.83515 17.4131 4.81028 17.1656L4.10028 10.0656H15.9003L15.1903 17.1656ZM17.0003 8.06558H3.00028C2.73506 8.06558 2.48071 7.96022 2.29317 7.77269C2.10564 7.58515 2.00028 7.3308 2.00028 7.06558C2.00028 6.80036 2.10564 6.54601 2.29317 6.35847C2.48071 6.17094 2.73506 6.06558 3.00028 6.06558H17.0003C17.2655 6.06558 17.5199 6.17094 17.7074 6.35847C17.8949 6.54601 18.0003 6.80036 18.0003 7.06558C18.0003 7.3308 17.8949 7.58515 17.7074 7.77269C17.5199 7.96022 17.2655 8.06558 17.0003 8.06558Z" fill="black"/>
</svg>
